# xmcd
#
# Track frame offsets: 
#        150
#        12597
#        26244
#        41360
#        61695
#        76971
#        89787
#        98734
#        112320
#        122354
#        134966
#        146951
#        159582
#
# Disc length: 2306 seconds
#
# Revision: 0
# Processed by: cddbd v1.5.2PL0 Copyright (c) Steve Scherf et al.
# Submitted via: ExactAudioCopy v0.95a5
#
DISCID=bb09000d
DTITLE=Cousin Harley - It's A Sin
DYEAR=2010
DGENRE=Retro
TTITLE0=Conductor Man
TTITLE1=She's Comin' Back
TTITLE2=Beaver Fever
TTITLE3=It's A Sin
TTITLE4=The Ballad Of El Swartho
TTITLE5=2 Bottles Of Booze
TTITLE6=Hoss' Hoedown
TTITLE7=I'll Keep My Old Guitar
TTITLE8=Swingin' Like A Mofo
TTITLE9=Red Haired Baby
TTITLE10=Spooks
TTITLE11=Sweet Little Angel
TTITLE12=Spaghetti No Sauce
EXTD=
EXTT0=
EXTT1=
EXTT2=
EXTT3=
EXTT4=
EXTT5=
EXTT6=
EXTT7=
EXTT8=
EXTT9=
EXTT10=
EXTT11=
EXTT12=
PLAYORDER=
